<?xml version="1.0" encoding="UTF-8"?><svg id="a" xmlns="http://www.w3.org/2000/svg" viewBox="0 0 400 212.32"><defs><style>.b{fill:#ff6302;}</style></defs><path class="b" d="M70.77,62.54h-30.82V202.58c-3.24,3.24-6.49,6.49-9.73,9.73h40.55V126.24h53.49v-40.59h-53.49v-23.11Z"/><path class="b" d="M59.52,6.02v-1.14L250.94,28.31h31.1L59.52,1.08V0h-8.32V.98L.01,28.31H8.03L51.2,5.28v.74h2.26v10.32h-13.5v11.97h30.81v-11.97h-13.53V6.02h2.28Z"/><path class="b" d="M298.5,143.87l12.52-18.53v-9.45l-3.34-3.34V62.54l-23.31-31.24v.03l-2.3-3.02H0l.05,.12V62.54H278.48v50.01l-3.34,3.34v9.45l12.52,18.53h.99c.03,.36,.05,.86,.05,1.48,0,.79,0,1.33-.1,1.83-.19,.92-.67,1.53-1.11,2.08-.93,1.16-1.81,2.35-2.78,3.49-.36,.41-2.11,2.44-3.02,4.45-1.03,2.26-1.63,5.83-.04,9.25,1.59,3.46,4.67,4.93,5.51,5.32,3.61,1.66,8.44,1.57,11.97-1.14,.62-.48,3.83-2.94,4.05-7.1,.1-2.09-.6-3.74-1.04-4.58-.04,.27-.89,6.2-5.38,7.84-.49,.18-2.48,.9-4.61,.01-1.49-.62-3.17-2.08-3.39-4.04-.08-.71,.05-1.26,.18-1.72,.23-.93,.67-1.67,2.75-4.31,.23-.29,.57-.72,1.05-1.33,1.72-2.13,2.22-2.61,3.13-3.9,.79-1.09,1.18-1.64,1.33-2.12,.25-.81,.16-1.34,.16-3.75,.01-.75,.03-1.37,.03-1.77h1.09ZM3.83,36.35h14.28L3.83,55.48v-19.13Zm2.26,22.41l15.79-21.14,15.79,21.14H6.09Zm33.86-3.27l-14.31-19.14h14.31v19.14Zm27.04,3.27h-23.26v-22.41h23.26v22.41Zm3.78-22.41h14.28l-14.28,19.13v-19.13Zm2.26,22.41l15.79-21.14,15.79,21.14h-31.58Zm19.55-22.41h31.59l-15.8,21.14-15.79-21.14Zm19.57,22.41l15.79-21.14,15.78,21.14h-31.56Zm19.55-22.41h31.58l-15.79,21.14-15.79-21.14Zm19.57,22.41l15.78-21.14,15.79,21.14h-31.56Zm19.54-22.41h31.58l-15.78,21.14-15.8-21.14Zm19.57,22.41l15.78-21.14,15.79,21.14h-31.56Zm19.55-22.41h31.58l-15.79,21.14-15.79-21.14Zm19.55,22.41l15.79-21.14,15.79,21.14h-31.58Zm19.55-22.41h31.59l-15.79,21.14-15.8-21.14Zm19.57,22.41l15.79-21.14,15.79,21.14h-31.58Zm13.68,3.78h21.64v46.22l-4.71-4.71h-12.23l-4.71,4.71V62.54Zm14.94,77.04h-8.28v-2.07h8.28v2.07Zm-4.12-9.18c-3.54,0-6.43-2.89-6.43-6.43s2.89-6.43,6.43-6.43,6.43,2.87,6.43,6.43-2.87,6.43-6.43,6.43Z"/><path class="b" d="M128.2,77.09V212.32h113.52c9.19,0,16.65-7.46,16.65-16.65v-49.69l-13.69-9.98,13.69-9.73v-58.91H118.46c3.25,3.25,6.49,6.49,9.73,9.73Zm32.05,8.57h68.04v40.59h-68.04v-40.59Zm0,61.49h68.04v40.59h-68.04v-40.59Z"/><g><path class="b" d="M334.35,145.03c-.59-.58-1.29-1.04-2.07-1.38-.8-.34-1.62-.51-2.46-.51h-14.72c-.91,0-1.75,.18-2.53,.53-.77,.36-1.45,.83-2.03,1.42-.59,.6-1.05,1.28-1.39,2.06-.34,.78-.51,1.59-.51,2.44v16.81c0,.91,.17,1.75,.53,2.52,.35,.78,.82,1.46,1.41,2.04,.6,.58,1.29,1.04,2.06,1.38,.78,.34,1.59,.51,2.45,.51h14.72c.91,0,1.75-.18,2.54-.53,.78-.36,1.47-.83,2.06-1.42,.57-.6,1.04-1.28,1.37-2.06,.35-.78,.52-1.59,.52-2.44v-16.81c0-.91-.18-1.75-.53-2.53-.35-.78-.83-1.46-1.43-2.04Zm-4.49,20.52c0,.51-.18,.95-.56,1.32-.36,.37-.8,.55-1.31,.55h-11.07c-.48,0-.91-.19-1.27-.55-.36-.37-.55-.81-.55-1.32v-15.11c0-.51,.18-.95,.55-1.32,.36-.37,.8-.55,1.27-.55h11.07c.52,0,.95,.18,1.31,.55,.38,.37,.56,.81,.56,1.32v15.11Z"/><path class="b" d="M363.75,161.34c.87-.35,1.61-.83,2.22-1.42,.63-.6,1.09-1.28,1.43-2.06,.32-.78,.49-1.59,.49-2.44v-5.82c0-.91-.18-1.75-.53-2.53-.36-.78-.82-1.46-1.42-2.04-.59-.58-1.27-1.04-2.06-1.38-.78-.34-1.59-.51-2.43-.51h-20.79v29.72h6.49v-11h6.66l7.47,11h7l-7.47-11c1.11,0,2.08-.18,2.95-.53Zm-16.61-4.9v-7.86h12.47c.52,0,.94,.19,1.3,.55,.35,.37,.53,.81,.53,1.32v4.12c0,.51-.18,.95-.53,1.32-.36,.37-.78,.55-1.3,.55h-12.47Z"/><path class="b" d="M399.47,147.07c-.35-.78-.83-1.46-1.43-2.04-.59-.58-1.27-1.04-2.06-1.38-.77-.34-1.58-.51-2.43-.51h-21.21v29.72h6.45v-8.87h14.76c.88,0,1.71-.18,2.51-.53,.8-.36,1.48-.83,2.06-1.42,.57-.59,1.04-1.28,1.39-2.06,.34-.78,.5-1.59,.5-2.44v-7.94c0-.91-.18-1.75-.53-2.53Zm-5.92,9.62c0,.51-.18,.94-.55,1.3-.38,.35-.8,.53-1.27,.53h-12.94v-9.94h12.94c.48,0,.89,.19,1.27,.55,.36,.37,.55,.81,.55,1.32v6.24Z"/></g></svg>